<!-- Generated by IcoMoon.io -->
<svg version="1.1" xmlns="http://www.w3.org/2000/svg" width="2000" height="2000" viewBox="0 0 2000 2000">
<title>adjustments-vertical</title>
<path fill="none" stroke-linejoin="round" stroke-linecap="round" stroke-miterlimit="4" stroke-width="125" stroke="#000" d="M500 1125v-812.5M500 1125c69.035 0 125 55.965 125 125s-55.965 125-125 125v0M500 1125c-69.035 0-125 55.965-125 125s55.965 125 125 125v0M500 1687.5v-312.5M1500 1125v-812.5M1500 1125c69.035 0 125 55.965 125 125s-55.965 125-125 125v0M1500 1125c-69.035 0-125 55.965-125 125s55.965 125 125 125v0M1500 1687.5v-312.5M1000 625v-312.5M1000 625c69.035 0 125 55.965 125 125s-55.965 125-125 125v0M1000 625c-69.035 0-125 55.965-125 125s55.965 125 125 125v0M1000 1687.5v-812.5"></path>
</svg>
