<!-- Generated by IcoMoon.io -->
<svg version="1.1" xmlns="http://www.w3.org/2000/svg" width="2000" height="2000" viewBox="0 0 2000 2000">
<title>adjustments-horizontal</title>
<path fill="none" stroke-linejoin="round" stroke-linecap="round" stroke-miterlimit="4" stroke-width="125" stroke="#000" d="M875 500h812.5M875 500c0 69.035-55.965 125-125 125s-125-55.965-125-125v0M875 500c0-69.035-55.965-125-125-125s-125 55.965-125 125v0M312.5 500h312.5M875 1500h812.5M875 1500c0 69.035-55.965 125-125 125s-125-55.965-125-125v0M875 1500c0-69.035-55.965-125-125-125s-125 55.965-125 125v0M312.5 1500h312.5M1375 1000h312.5M1375 1000c0 69.035-55.965 125-125 125s-125-55.965-125-125v0M1375 1000c0-69.035-55.965-125-125-125s-125 55.965-125 125v0M312.5 1000h812.5"></path>
</svg>
